<?xml version="1.0" encoding="UTF-8"?>
<!DOCTYPE svg PUBLIC "-//W3C//DTD SVG 1.1//EN" "http://www.w3.org/Graphics/SVG/1.1/DTD/svg11.dtd">
<svg version="1.1" xmlns="http://www.w3.org/2000/svg" xmlns:xlink="http://www.w3.org/1999/xlink" x="0" y="0" width="800" height="400" viewBox="0, 0, 800, 400">
  <g id="Layer_1">
    <g>
      <path d="M114.016,76 L768,76" fill="#000000"/>
      <path d="M114.016,76 L768,76" fill-opacity="0" stroke="#000000" stroke-width="1" stroke-dasharray="1,3" stroke-linejoin="round"/>
    </g>
    <g>
      <path d="M114.016,134 L768,134" fill="#000000"/>
      <path d="M114.016,134 L768,134" fill-opacity="0" stroke="#000000" stroke-width="1" stroke-dasharray="1,3" stroke-linejoin="round"/>
    </g>
    <g>
      <path d="M114.016,192 L768,192" fill="#000000"/>
      <path d="M114.016,192 L768,192" fill-opacity="0" stroke="#000000" stroke-width="1" stroke-dasharray="1,3" stroke-linejoin="round"/>
    </g>
    <g>
      <path d="M114.016,250 L768,250" fill="#000000"/>
      <path d="M114.016,250 L768,250" fill-opacity="0" stroke="#000000" stroke-width="1" stroke-dasharray="1,3" stroke-linejoin="round"/>
    </g>
    <g>
      <path d="M114.016,308 L768,308" fill="#000000"/>
      <path d="M114.016,308 L768,308" fill-opacity="0" stroke="#000000" stroke-width="1" stroke-dasharray="1,3" stroke-linejoin="round"/>
    </g>
    <g>
      <path d="M114.016,366 L768,366" fill="#000000"/>
      <path d="M114.016,366 L768,366" fill-opacity="0" stroke="#000000" stroke-width="1" stroke-dasharray="1,3" stroke-linejoin="round"/>
    </g>
    <path d="M24,56 L114.016,56 L114.016,92 L24,92 z" fill="#CFE2F3"/>
    <path d="M34.406,80.92 L34.406,67.326 L37.125,67.326 L40.344,76.951 Q40.781,78.295 40.984,78.967 Q41.219,78.217 41.719,76.779 L44.969,67.326 L47.391,67.326 L47.391,80.92 L45.656,80.92 L45.656,69.529 L41.703,80.92 L40.078,80.92 L36.141,69.342 L36.141,80.92 L34.406,80.92 z M56.228,79.701 Q55.291,80.498 54.431,80.826 Q53.572,81.139 52.588,81.139 Q50.978,81.139 50.103,80.357 Q49.228,79.561 49.228,78.326 Q49.228,77.592 49.556,76.998 Q49.885,76.404 50.416,76.045 Q50.947,75.686 51.619,75.498 Q52.119,75.357 53.103,75.248 Q55.135,74.998 56.088,74.67 Q56.088,74.326 56.088,74.232 Q56.088,73.217 55.619,72.795 Q54.978,72.232 53.713,72.232 Q52.541,72.232 51.978,72.639 Q51.416,73.045 51.15,74.107 L49.51,73.873 Q49.744,72.826 50.244,72.186 Q50.76,71.545 51.713,71.201 Q52.681,70.842 53.963,70.842 Q55.228,70.842 56.01,71.139 Q56.791,71.436 57.166,71.889 Q57.541,72.342 57.681,73.029 Q57.775,73.451 57.775,74.561 L57.775,76.795 Q57.775,79.123 57.869,79.748 Q57.978,80.357 58.306,80.92 L56.556,80.92 Q56.291,80.404 56.228,79.701 z M56.088,75.982 Q55.181,76.342 53.353,76.607 Q52.322,76.748 51.9,76.936 Q51.478,77.123 51.244,77.482 Q51.01,77.842 51.01,78.279 Q51.01,78.951 51.51,79.404 Q52.025,79.842 52.994,79.842 Q53.963,79.842 54.713,79.42 Q55.463,78.982 55.822,78.264 Q56.088,77.686 56.088,76.592 L56.088,75.982 z M59.495,77.982 L61.151,77.717 Q61.292,78.717 61.917,79.248 Q62.557,79.764 63.698,79.764 Q64.854,79.764 65.401,79.295 Q65.963,78.826 65.963,78.201 Q65.963,77.639 65.479,77.311 Q65.135,77.092 63.776,76.748 Q61.932,76.279 61.213,75.951 Q60.51,75.607 60.135,75.014 Q59.776,74.404 59.776,73.686 Q59.776,73.029 60.073,72.467 Q60.385,71.904 60.901,71.529 Q61.292,71.248 61.963,71.045 Q62.635,70.842 63.401,70.842 Q64.573,70.842 65.448,71.186 Q66.323,71.514 66.729,72.092 Q67.151,72.654 67.307,73.607 L65.682,73.826 Q65.573,73.076 65.026,72.654 Q64.495,72.217 63.526,72.217 Q62.37,72.217 61.885,72.607 Q61.401,72.982 61.401,73.482 Q61.401,73.811 61.604,74.076 Q61.807,74.342 62.245,74.514 Q62.495,74.607 63.713,74.951 Q65.479,75.42 66.182,75.717 Q66.885,76.014 67.276,76.592 Q67.682,77.17 67.682,78.029 Q67.682,78.857 67.198,79.607 Q66.713,80.342 65.792,80.748 Q64.87,81.139 63.713,81.139 Q61.792,81.139 60.776,80.342 Q59.776,79.545 59.495,77.982 z M73.151,79.42 L73.385,80.904 Q72.682,81.045 72.12,81.045 Q71.213,81.045 70.713,80.764 Q70.213,80.467 70.01,80.014 Q69.807,79.545 69.807,78.029 L69.807,72.373 L68.573,72.373 L68.573,71.061 L69.807,71.061 L69.807,68.623 L71.463,67.623 L71.463,71.061 L73.151,71.061 L73.151,72.373 L71.463,72.373 L71.463,78.123 Q71.463,78.842 71.542,79.045 Q71.635,79.248 71.838,79.373 Q72.042,79.498 72.417,79.498 Q72.682,79.498 73.151,79.42 z M81.428,77.748 L83.147,77.967 Q82.74,79.467 81.631,80.311 Q80.537,81.139 78.819,81.139 Q76.662,81.139 75.397,79.811 Q74.131,78.482 74.131,76.076 Q74.131,73.592 75.397,72.217 Q76.678,70.842 78.725,70.842 Q80.709,70.842 81.959,72.186 Q83.209,73.529 83.209,75.982 Q83.209,76.123 83.194,76.42 L75.85,76.42 Q75.944,78.045 76.772,78.904 Q77.6,79.764 78.834,79.764 Q79.74,79.764 80.381,79.295 Q81.037,78.811 81.428,77.748 z M75.944,75.045 L81.444,75.045 Q81.334,73.811 80.819,73.186 Q80.022,72.217 78.74,72.217 Q77.6,72.217 76.803,72.998 Q76.022,73.764 75.944,75.045 z M85.038,80.92 L85.038,71.061 L86.538,71.061 L86.538,72.561 Q87.116,71.514 87.601,71.186 Q88.085,70.842 88.679,70.842 Q89.522,70.842 90.397,71.389 L89.819,72.936 Q89.21,72.576 88.585,72.576 Q88.038,72.576 87.601,72.904 Q87.179,73.232 86.991,73.811 Q86.71,74.701 86.71,75.764 L86.71,80.92 L85.038,80.92 z" fill="#000000"/>
    <path d="M24,116 L114.016,116 L114.016,152 L24,152 z" fill="#FF9900"/>
    <path d="M34.516,140.92 L34.516,127.326 L36.328,127.326 L36.328,132.904 L43.391,132.904 L43.391,127.326 L45.188,127.326 L45.188,140.92 L43.391,140.92 L43.391,134.514 L36.328,134.514 L36.328,140.92 L34.516,140.92 z M47.098,135.998 Q47.098,133.264 48.629,131.936 Q49.895,130.842 51.723,130.842 Q53.754,130.842 55.035,132.186 Q56.332,133.514 56.332,135.857 Q56.332,137.764 55.754,138.857 Q55.192,139.936 54.098,140.545 Q53.02,141.139 51.723,141.139 Q49.66,141.139 48.379,139.811 Q47.098,138.482 47.098,135.998 z M48.817,135.998 Q48.817,137.889 49.645,138.826 Q50.473,139.764 51.723,139.764 Q52.973,139.764 53.785,138.826 Q54.614,137.873 54.614,135.936 Q54.614,134.107 53.785,133.17 Q52.957,132.232 51.723,132.232 Q50.473,132.232 49.645,133.17 Q48.817,134.107 48.817,135.998 z M61.755,139.42 L61.989,140.904 Q61.286,141.045 60.724,141.045 Q59.817,141.045 59.317,140.764 Q58.817,140.467 58.614,140.014 Q58.411,139.545 58.411,138.029 L58.411,132.373 L57.177,132.373 L57.177,131.061 L58.411,131.061 L58.411,128.623 L60.067,127.623 L60.067,131.061 L61.755,131.061 L61.755,132.373 L60.067,132.373 L60.067,138.123 Q60.067,138.842 60.146,139.045 Q60.239,139.248 60.442,139.373 Q60.646,139.498 61.021,139.498 Q61.286,139.498 61.755,139.42 z M63.688,140.92 L63.688,132.373 L62.204,132.373 L62.204,131.061 L63.688,131.061 L63.688,130.014 Q63.688,129.029 63.86,128.545 Q64.094,127.889 64.704,127.498 Q65.313,127.092 66.407,127.092 Q67.11,127.092 67.969,127.248 L67.719,128.717 Q67.204,128.623 66.735,128.623 Q65.969,128.623 65.657,128.951 Q65.344,129.264 65.344,130.154 L65.344,131.061 L67.266,131.061 L67.266,132.373 L65.344,132.373 L65.344,140.92 L63.688,140.92 z M68.481,129.232 L68.481,127.326 L70.153,127.326 L70.153,129.232 L68.481,129.232 z M68.481,140.92 L68.481,131.061 L70.153,131.061 L70.153,140.92 L68.481,140.92 z M71.501,140.92 L75.094,135.795 L71.766,131.061 L73.86,131.061 L75.376,133.373 Q75.798,134.029 76.048,134.482 Q76.469,133.873 76.813,133.389 L78.469,131.061 L80.454,131.061 L77.063,135.701 L80.719,140.92 L78.673,140.92 L76.641,137.857 L76.11,137.029 L73.516,140.92 L71.501,140.92 z" fill="#000000"/>
    <path d="M24,176 L114.016,176 L114.016,212 L24,212 z" fill="#3D85C6"/>
    <path d="M34.5,200.92 L34.5,187.326 L40.531,187.326 Q42.344,187.326 43.281,187.686 Q44.234,188.045 44.797,188.982 Q45.359,189.904 45.359,191.029 Q45.359,192.482 44.422,193.482 Q43.5,194.467 41.531,194.732 Q42.25,195.076 42.625,195.404 Q43.406,196.139 44.109,197.217 L46.484,200.92 L44.219,200.92 L42.422,198.092 Q41.625,196.873 41.109,196.217 Q40.609,195.561 40.203,195.311 Q39.797,195.045 39.391,194.951 Q39.078,194.873 38.375,194.873 L36.297,194.873 L36.297,200.92 L34.5,200.92 z M36.297,193.326 L40.156,193.326 Q41.391,193.326 42.078,193.076 Q42.781,192.811 43.141,192.248 Q43.516,191.686 43.516,191.029 Q43.516,190.061 42.812,189.451 Q42.109,188.826 40.594,188.826 L36.297,188.826 L36.297,193.326 z M54.473,197.748 L56.192,197.967 Q55.785,199.467 54.676,200.311 Q53.582,201.139 51.864,201.139 Q49.707,201.139 48.442,199.811 Q47.176,198.482 47.176,196.076 Q47.176,193.592 48.442,192.217 Q49.723,190.842 51.77,190.842 Q53.754,190.842 55.004,192.186 Q56.254,193.529 56.254,195.982 Q56.254,196.123 56.239,196.42 L48.895,196.42 Q48.989,198.045 49.817,198.904 Q50.645,199.764 51.879,199.764 Q52.785,199.764 53.426,199.295 Q54.082,198.811 54.473,197.748 z M48.989,195.045 L54.489,195.045 Q54.379,193.811 53.864,193.186 Q53.067,192.217 51.785,192.217 Q50.645,192.217 49.848,192.998 Q49.067,193.764 48.989,195.045 z M58.067,200.92 L58.067,187.326 L59.739,187.326 L59.739,200.92 L58.067,200.92 z M68.993,197.748 L70.712,197.967 Q70.306,199.467 69.197,200.311 Q68.103,201.139 66.384,201.139 Q64.228,201.139 62.962,199.811 Q61.697,198.482 61.697,196.076 Q61.697,193.592 62.962,192.217 Q64.243,190.842 66.29,190.842 Q68.275,190.842 69.525,192.186 Q70.775,193.529 70.775,195.982 Q70.775,196.123 70.759,196.42 L63.415,196.42 Q63.509,198.045 64.337,198.904 Q65.165,199.764 66.4,199.764 Q67.306,199.764 67.947,199.295 Q68.603,198.811 68.993,197.748 z M63.509,195.045 L69.009,195.045 Q68.9,193.811 68.384,193.186 Q67.587,192.217 66.306,192.217 Q65.165,192.217 64.368,192.998 Q63.587,193.764 63.509,195.045 z M79.057,199.701 Q78.119,200.498 77.26,200.826 Q76.4,201.139 75.416,201.139 Q73.807,201.139 72.932,200.357 Q72.057,199.561 72.057,198.326 Q72.057,197.592 72.385,196.998 Q72.713,196.404 73.244,196.045 Q73.775,195.686 74.447,195.498 Q74.947,195.357 75.932,195.248 Q77.963,194.998 78.916,194.67 Q78.916,194.326 78.916,194.232 Q78.916,193.217 78.447,192.795 Q77.807,192.232 76.541,192.232 Q75.369,192.232 74.807,192.639 Q74.244,193.045 73.979,194.107 L72.338,193.873 Q72.572,192.826 73.072,192.186 Q73.588,191.545 74.541,191.201 Q75.51,190.842 76.791,190.842 Q78.057,190.842 78.838,191.139 Q79.619,191.436 79.994,191.889 Q80.369,192.342 80.51,193.029 Q80.604,193.451 80.604,194.561 L80.604,196.795 Q80.604,199.123 80.697,199.748 Q80.807,200.357 81.135,200.92 L79.385,200.92 Q79.119,200.404 79.057,199.701 z M78.916,195.982 Q78.01,196.342 76.182,196.607 Q75.15,196.748 74.729,196.936 Q74.307,197.123 74.072,197.482 Q73.838,197.842 73.838,198.279 Q73.838,198.951 74.338,199.404 Q74.854,199.842 75.822,199.842 Q76.791,199.842 77.541,199.42 Q78.291,198.982 78.65,198.264 Q78.916,197.686 78.916,196.592 L78.916,195.982 z M82.323,197.982 L83.979,197.717 Q84.12,198.717 84.745,199.248 Q85.386,199.764 86.526,199.764 Q87.682,199.764 88.229,199.295 Q88.792,198.826 88.792,198.201 Q88.792,197.639 88.307,197.311 Q87.964,197.092 86.604,196.748 Q84.761,196.279 84.042,195.951 Q83.339,195.607 82.964,195.014 Q82.604,194.404 82.604,193.686 Q82.604,193.029 82.901,192.467 Q83.214,191.904 83.729,191.529 Q84.12,191.248 84.792,191.045 Q85.464,190.842 86.229,190.842 Q87.401,190.842 88.276,191.186 Q89.151,191.514 89.557,192.092 Q89.979,192.654 90.136,193.607 L88.511,193.826 Q88.401,193.076 87.854,192.654 Q87.323,192.217 86.354,192.217 Q85.198,192.217 84.714,192.607 Q84.229,192.982 84.229,193.482 Q84.229,193.811 84.432,194.076 Q84.636,194.342 85.073,194.514 Q85.323,194.607 86.542,194.951 Q88.307,195.42 89.011,195.717 Q89.714,196.014 90.104,196.592 Q90.511,197.17 90.511,198.029 Q90.511,198.857 90.026,199.607 Q89.542,200.342 88.62,200.748 Q87.698,201.139 86.542,201.139 Q84.62,201.139 83.604,200.342 Q82.604,199.545 82.323,197.982 z M99.073,197.748 L100.792,197.967 Q100.386,199.467 99.276,200.311 Q98.182,201.139 96.464,201.139 Q94.307,201.139 93.042,199.811 Q91.776,198.482 91.776,196.076 Q91.776,193.592 93.042,192.217 Q94.323,190.842 96.37,190.842 Q98.354,190.842 99.604,192.186 Q100.854,193.529 100.854,195.982 Q100.854,196.123 100.839,196.42 L93.495,196.42 Q93.589,198.045 94.417,198.904 Q95.245,199.764 96.479,199.764 Q97.386,199.764 98.026,199.295 Q98.682,198.811 99.073,197.748 z M93.589,195.045 L99.089,195.045 Q98.979,193.811 98.464,193.186 Q97.667,192.217 96.386,192.217 Q95.245,192.217 94.448,192.998 Q93.667,193.764 93.589,195.045 z" fill="#000000"/>
    <path d="M24,232 L114.016,232 L114.016,268 L24,268 z" fill="#674EA7"/>
    <path d="M34.469,256.92 L34.469,243.326 L39.156,243.326 Q40.734,243.326 41.578,243.514 Q42.734,243.779 43.562,244.482 Q44.641,245.404 45.172,246.826 Q45.703,248.232 45.703,250.045 Q45.703,251.592 45.344,252.795 Q44.984,253.982 44.422,254.779 Q43.859,255.561 43.188,256.014 Q42.516,256.451 41.562,256.686 Q40.609,256.92 39.375,256.92 L34.469,256.92 z M36.266,255.311 L39.172,255.311 Q40.516,255.311 41.281,255.061 Q42.047,254.811 42.5,254.357 Q43.141,253.717 43.5,252.639 Q43.859,251.561 43.859,250.014 Q43.859,247.889 43.156,246.748 Q42.453,245.592 41.453,245.201 Q40.734,244.92 39.125,244.92 L36.266,244.92 L36.266,255.311 z M54.473,253.748 L56.192,253.967 Q55.785,255.467 54.676,256.311 Q53.582,257.139 51.864,257.139 Q49.707,257.139 48.442,255.811 Q47.176,254.482 47.176,252.076 Q47.176,249.592 48.442,248.217 Q49.723,246.842 51.77,246.842 Q53.754,246.842 55.004,248.186 Q56.254,249.529 56.254,251.982 Q56.254,252.123 56.239,252.42 L48.895,252.42 Q48.989,254.045 49.817,254.904 Q50.645,255.764 51.879,255.764 Q52.785,255.764 53.426,255.295 Q54.082,254.811 54.473,253.748 z M48.989,251.045 L54.489,251.045 Q54.379,249.811 53.864,249.186 Q53.067,248.217 51.785,248.217 Q50.645,248.217 49.848,248.998 Q49.067,249.764 48.989,251.045 z M60.833,256.92 L57.083,247.061 L58.849,247.061 L60.974,252.967 Q61.317,253.92 61.599,254.951 Q61.817,254.17 62.224,253.076 L64.411,247.061 L66.13,247.061 L62.396,256.92 L60.833,256.92 z M74.177,253.748 L75.896,253.967 Q75.489,255.467 74.38,256.311 Q73.286,257.139 71.567,257.139 Q69.411,257.139 68.146,255.811 Q66.88,254.482 66.88,252.076 Q66.88,249.592 68.146,248.217 Q69.427,246.842 71.474,246.842 Q73.458,246.842 74.708,248.186 Q75.958,249.529 75.958,251.982 Q75.958,252.123 75.942,252.42 L68.599,252.42 Q68.692,254.045 69.521,254.904 Q70.349,255.764 71.583,255.764 Q72.489,255.764 73.13,255.295 Q73.786,254.811 74.177,253.748 z M68.692,251.045 L74.192,251.045 Q74.083,249.811 73.567,249.186 Q72.771,248.217 71.489,248.217 Q70.349,248.217 69.552,248.998 Q68.771,249.764 68.692,251.045 z M77.771,256.92 L77.771,243.326 L79.443,243.326 L79.443,256.92 L77.771,256.92 z M81.322,251.998 Q81.322,249.264 82.854,247.936 Q84.119,246.842 85.947,246.842 Q87.979,246.842 89.26,248.186 Q90.557,249.514 90.557,251.857 Q90.557,253.764 89.979,254.857 Q89.416,255.936 88.322,256.545 Q87.244,257.139 85.947,257.139 Q83.885,257.139 82.604,255.811 Q81.322,254.482 81.322,251.998 z M83.041,251.998 Q83.041,253.889 83.869,254.826 Q84.697,255.764 85.947,255.764 Q87.197,255.764 88.01,254.826 Q88.838,253.873 88.838,251.936 Q88.838,250.107 88.01,249.17 Q87.182,248.232 85.947,248.232 Q84.697,248.232 83.869,249.17 Q83.041,250.107 83.041,251.998 z M92.323,260.701 L92.323,247.061 L93.854,247.061 L93.854,248.342 Q94.386,247.592 95.057,247.217 Q95.745,246.842 96.698,246.842 Q97.964,246.842 98.932,247.498 Q99.901,248.139 100.386,249.326 Q100.886,250.514 100.886,251.92 Q100.886,253.436 100.339,254.654 Q99.792,255.857 98.761,256.498 Q97.729,257.139 96.589,257.139 Q95.745,257.139 95.073,256.795 Q94.417,256.436 93.995,255.904 L93.995,260.701 L92.323,260.701 z M93.839,252.045 Q93.839,253.951 94.604,254.857 Q95.386,255.764 96.479,255.764 Q97.589,255.764 98.37,254.826 Q99.167,253.889 99.167,251.904 Q99.167,250.029 98.386,249.092 Q97.62,248.154 96.542,248.154 Q95.479,248.154 94.651,249.154 Q93.839,250.154 93.839,252.045 z" fill="#000000"/>
    <path d="M24,290 L114.016,290 L114.016,383.984 L24,383.984 z" fill="#6AA84F"/>
    <path d="M34.562,343.912 L34.562,330.318 L43.734,330.318 L43.734,331.912 L36.359,331.912 L36.359,336.131 L42.734,336.131 L42.734,337.74 L36.359,337.74 L36.359,343.912 L34.562,343.912 z M52.396,340.74 L54.115,340.959 Q53.708,342.459 52.599,343.303 Q51.505,344.131 49.787,344.131 Q47.63,344.131 46.365,342.803 Q45.099,341.475 45.099,339.068 Q45.099,336.584 46.365,335.209 Q47.646,333.834 49.693,333.834 Q51.677,333.834 52.927,335.178 Q54.177,336.521 54.177,338.975 Q54.177,339.115 54.162,339.412 L46.818,339.412 Q46.912,341.037 47.74,341.896 Q48.568,342.756 49.802,342.756 Q50.708,342.756 51.349,342.287 Q52.005,341.803 52.396,340.74 z M46.912,338.037 L52.412,338.037 Q52.302,336.803 51.787,336.178 Q50.99,335.209 49.708,335.209 Q48.568,335.209 47.771,335.99 Q46.99,336.756 46.912,338.037 z M62.459,342.693 Q61.522,343.49 60.662,343.818 Q59.803,344.131 58.819,344.131 Q57.209,344.131 56.334,343.35 Q55.459,342.553 55.459,341.318 Q55.459,340.584 55.787,339.99 Q56.115,339.396 56.647,339.037 Q57.178,338.678 57.85,338.49 Q58.35,338.35 59.334,338.24 Q61.365,337.99 62.319,337.662 Q62.319,337.318 62.319,337.225 Q62.319,336.209 61.85,335.787 Q61.209,335.225 59.944,335.225 Q58.772,335.225 58.209,335.631 Q57.647,336.037 57.381,337.1 L55.74,336.865 Q55.975,335.818 56.475,335.178 Q56.99,334.537 57.944,334.193 Q58.912,333.834 60.194,333.834 Q61.459,333.834 62.24,334.131 Q63.022,334.428 63.397,334.881 Q63.772,335.334 63.912,336.021 Q64.006,336.443 64.006,337.553 L64.006,339.787 Q64.006,342.115 64.1,342.74 Q64.209,343.35 64.537,343.912 L62.787,343.912 Q62.522,343.396 62.459,342.693 z M62.319,338.975 Q61.412,339.334 59.584,339.6 Q58.553,339.74 58.131,339.928 Q57.709,340.115 57.475,340.475 Q57.24,340.834 57.24,341.271 Q57.24,341.943 57.74,342.396 Q58.256,342.834 59.225,342.834 Q60.194,342.834 60.944,342.412 Q61.694,341.975 62.053,341.256 Q62.319,340.678 62.319,339.584 L62.319,338.975 z M70.054,342.412 L70.288,343.896 Q69.585,344.037 69.022,344.037 Q68.116,344.037 67.616,343.756 Q67.116,343.459 66.913,343.006 Q66.71,342.537 66.71,341.021 L66.71,335.365 L65.476,335.365 L65.476,334.053 L66.71,334.053 L66.71,331.615 L68.366,330.615 L68.366,334.053 L70.054,334.053 L70.054,335.365 L68.366,335.365 L68.366,341.115 Q68.366,341.834 68.444,342.037 Q68.538,342.24 68.741,342.365 Q68.944,342.49 69.319,342.49 Q69.585,342.49 70.054,342.412 z M78.034,343.912 L78.034,342.459 Q76.893,344.131 74.909,344.131 Q74.049,344.131 73.284,343.803 Q72.534,343.459 72.159,342.959 Q71.799,342.459 71.643,341.725 Q71.549,341.225 71.549,340.162 L71.549,334.053 L73.221,334.053 L73.221,339.521 Q73.221,340.834 73.315,341.287 Q73.471,341.943 73.987,342.318 Q74.503,342.693 75.253,342.693 Q76.003,342.693 76.659,342.318 Q77.315,341.928 77.581,341.271 Q77.862,340.6 77.862,339.334 L77.862,334.053 L79.534,334.053 L79.534,343.912 L78.034,343.912 z M81.941,343.912 L81.941,334.053 L83.441,334.053 L83.441,335.553 Q84.019,334.506 84.503,334.178 Q84.988,333.834 85.581,333.834 Q86.425,333.834 87.3,334.381 L86.722,335.928 Q86.113,335.568 85.488,335.568 Q84.941,335.568 84.503,335.896 Q84.081,336.225 83.894,336.803 Q83.613,337.693 83.613,338.756 L83.613,343.912 L81.941,343.912 z M94.919,340.74 L96.638,340.959 Q96.232,342.459 95.122,343.303 Q94.028,344.131 92.31,344.131 Q90.153,344.131 88.888,342.803 Q87.622,341.475 87.622,339.068 Q87.622,336.584 88.888,335.209 Q90.169,333.834 92.216,333.834 Q94.2,333.834 95.45,335.178 Q96.7,336.521 96.7,338.975 Q96.7,339.115 96.685,339.412 L89.341,339.412 Q89.435,341.037 90.263,341.896 Q91.091,342.756 92.325,342.756 Q93.232,342.756 93.872,342.287 Q94.528,341.803 94.919,340.74 z M89.435,338.037 L94.935,338.037 Q94.825,336.803 94.31,336.178 Q93.513,335.209 92.232,335.209 Q91.091,335.209 90.294,335.99 Q89.513,336.756 89.435,338.037 z" fill="#000000"/>
    <path d="M134,74 L134,74 C134,66.268 140.268,60 148,60 L148,60 C151.713,60 155.274,61.475 157.899,64.101 C160.525,66.726 162,70.287 162,74 L162,74 C162,81.732 155.732,88 148,88 L148,88 C140.268,88 134,81.732 134,74 z" fill="#CFE2F3"/>
    <path d="M197,134 L197,134 C197,126.268 203.268,120 211,120 L211,120 C214.713,120 218.274,121.475 220.899,124.101 C223.525,126.726 225,130.287 225,134 L225,134 C225,141.732 218.732,148 211,148 L211,148 C203.268,148 197,141.732 197,134 z" fill="#FF9900"/>
    <path d="M197,250 L197,250 C197,242.268 203.268,236 211,236 L211,236 C214.713,236 218.274,237.475 220.899,240.1 C223.525,242.726 225,246.287 225,250 L225,250 C225,257.732 218.732,264 211,264 L211,264 C203.268,264 197,257.732 197,250 z" fill="#674EA7"/>
    <path d="M197,366 L197,366 C197,358.268 203.268,352 211,352 L211,352 C214.713,352 218.274,353.475 220.899,356.1 C223.525,358.726 225,362.287 225,366 L225,366 C225,373.732 218.732,380 211,380 L211,380 C203.268,380 197,373.732 197,366 z" fill="#6AA84F"/>
    <path d="M246,250 L246,250 C246,242.268 252.268,236 260,236 L260,236 C263.713,236 267.274,237.475 269.9,240.1 C272.525,242.726 274,246.287 274,250 L274,250 C274,257.732 267.732,264 260,264 L260,264 C252.268,264 246,257.732 246,250 z" fill="#674EA7"/>
    <path d="M399,74 L399,74 C399,66.268 405.268,60 413,60 L413,60 C416.713,60 420.274,61.475 422.9,64.101 C425.525,66.726 427,70.287 427,74 L427,74 C427,81.732 420.732,88 413,88 L413,88 C405.268,88 399,81.732 399,74 z" fill="#CFE2F3"/>
    <path d="M399,250 L399,250 C399,242.268 405.268,236 413,236 L413,236 C416.713,236 420.274,237.475 422.9,240.1 C425.525,242.726 427,246.287 427,250 L427,250 C427,257.732 420.732,264 413,264 L413,264 C405.268,264 399,257.732 399,250 z" fill="#674EA7"/>
    <path d="M399,308 L399,308 C399,300.268 405.268,294 413,294 L413,294 C416.713,294 420.274,295.475 422.9,298.1 C425.525,300.726 427,304.287 427,308 L427,308 C427,315.732 420.732,322 413,322 L413,322 C405.268,322 399,315.732 399,308 z" fill="#6AA84F"/>
    <path d="M399,366 L399,366 C399,358.268 405.268,352 413,352 L413,352 C416.713,352 420.274,353.475 422.9,356.1 C425.525,358.726 427,362.287 427,366 L427,366 C427,373.732 420.732,380 413,380 L413,380 C405.268,380 399,373.732 399,366 z" fill="#6AA84F"/>
    <path d="M331,366 L331,366 C331,358.268 337.268,352 345,352 L345,352 C348.713,352 352.274,353.475 354.9,356.1 C357.525,358.726 359,362.287 359,366 L359,366 C359,373.732 352.732,380 345,380 L345,380 C337.268,380 331,373.732 331,366 z" fill="#6AA84F"/>
    <path d="M467,366 L467,366 C467,358.268 473.268,352 481,352 L481,352 C484.713,352 488.274,353.475 490.9,356.1 C493.525,358.726 495,362.287 495,366 L495,366 C495,373.732 488.732,380 481,380 L481,380 C473.268,380 467,373.732 467,366 z" fill="#6AA84F"/>
    <path d="M467,308 L467,308 C467,300.268 473.268,294 481,294 L481,294 C484.713,294 488.274,295.475 490.9,298.1 C493.525,300.726 495,304.287 495,308 L495,308 C495,315.732 488.732,322 481,322 L481,322 C473.268,322 467,315.732 467,308 z" fill="#6AA84F"/>
    <path d="M533,250 L533,250 C533,242.268 539.268,236 547,236 L547,236 C550.713,236 554.274,237.475 556.899,240.1 C559.525,242.726 561,246.287 561,250 L561,250 C561,257.732 554.732,264 547,264 L547,264 C539.268,264 533,257.732 533,250 z" fill="#674EA7"/>
    <path d="M603,192 L603,192 C603,184.268 609.268,178 617,178 L617,178 C620.713,178 624.274,179.475 626.899,182.101 C629.525,184.726 631,188.287 631,192 L631,192 C631,199.732 624.732,206 617,206 L617,206 C609.268,206 603,199.732 603,192 z" fill="#3D85C6"/>
    <path d="M664,192 L664,192 C664,184.268 670.268,178 678,178 L678,178 C681.713,178 685.274,179.475 687.899,182.101 C690.525,184.726 692,188.287 692,192 L692,192 C692,199.732 685.732,206 678,206 L678,206 C670.268,206 664,199.732 664,192 z" fill="#3D85C6"/>
    <path d="M728,250 L728,250 C728,242.268 734.268,236 742,236 L742,236 C745.713,236 749.274,237.475 751.899,240.1 C754.525,242.726 756,246.287 756,250 L756,250 C756,257.732 749.732,264 742,264 L742,264 C734.268,264 728,257.732 728,250 z" fill="#674EA7"/>
    <path d="M664,76 L664,76 C664,68.268 670.268,62 678,62 L678,62 C681.713,62 685.274,63.475 687.899,66.101 C690.525,68.726 692,72.287 692,76 L692,76 C692,83.732 685.732,90 678,90 L678,90 C670.268,90 664,83.732 664,76 z" fill="#CFE2F3"/>
    <path d="M162,74 C170.75,74 175.126,118 179.5,162 C183.874,206 188.246,250 196.992,250" fill-opacity="0" stroke="#000000" stroke-width="3" stroke-linejoin="round"/>
    <path d="M162,74 C170.75,74 175.126,89 179.5,104 C183.874,119 188.246,134 196.992,134" fill-opacity="0" stroke="#000000" stroke-width="3" stroke-linejoin="round"/>
    <g>
      <path d="M224.992,249.937 C230.244,249.937 232.87,249.953 235.496,249.968 C238.122,249.984 240.748,250 246,250" fill="#000000"/>
      <path d="M224.992,249.937 C230.244,249.937 232.87,249.953 235.496,249.968 C238.122,249.984 240.748,250 246,250" fill-opacity="0" stroke="#000000" stroke-width="3" stroke-linejoin="round"/>
    </g>
    <g>
      <path d="M211,264 C211,286 211.016,297 211.031,308 C211.047,319 211.063,330 211.063,352" fill="#000000"/>
      <path d="M211,264 C211,286 211.016,297 211.031,308 C211.047,319 211.063,330 211.063,352" fill-opacity="0" stroke="#000000" stroke-width="3" stroke-linejoin="round"/>
    </g>
    <g>
      <path d="M225,366 C251.5,366 264.748,366.016 278,366.031 C291.252,366.047 304.508,366.063 331.016,366.063" fill="#000000"/>
      <path d="M225,366 C251.5,366 264.748,366.016 278,366.031 C291.252,366.047 304.508,366.063 331.016,366.063" fill-opacity="0" stroke="#000000" stroke-width="3" stroke-linejoin="round"/>
    </g>
    <g>
      <path d="M359,366 C369,366 374,366.016 379,366.031 C384,366.047 389,366.063 399,366.063" fill="#000000"/>
      <path d="M359,366 C369,366 374,366.016 379,366.031 C384,366.047 389,366.063 399,366.063" fill-opacity="0" stroke="#000000" stroke-width="3" stroke-linejoin="round"/>
    </g>
    <g>
      <path d="M427,366 C437,366 442,366.016 447,366.031 C452,366.047 457,366.063 467,366.063" fill="#000000"/>
      <path d="M427,366 C437,366 442,366.016 447,366.031 C452,366.047 457,366.063 467,366.063" fill-opacity="0" stroke="#000000" stroke-width="3" stroke-linejoin="round"/>
    </g>
    <path d="M274,250 C305.25,250 320.874,264.504 336.5,279.008 C352.126,293.512 367.754,308.016 399.008,308.016" fill-opacity="0" stroke="#000000" stroke-width="3" stroke-linejoin="round"/>
    <path d="M225,134 C268.508,134 290.265,163 312.017,192 C333.769,221 355.516,250 399.016,250" fill-opacity="0" stroke="#000000" stroke-width="3" stroke-linejoin="round"/>
    <path d="M225,134 C268.508,134 290.265,119 312.017,104 C333.769,89 355.516,74 399.016,74" fill-opacity="0" stroke="#000000" stroke-width="3" stroke-linejoin="round"/>
    <g>
      <path d="M427,74 C486.25,74 515.873,74.504 545.499,75.008 C575.125,75.512 604.754,76.016 664.008,76.016" fill="#000000"/>
      <path d="M427,74 C486.25,74 515.873,74.504 545.499,75.008 C575.125,75.512 604.754,76.016 664.008,76.016" fill-opacity="0" stroke="#000000" stroke-width="3" stroke-linejoin="round"/>
    </g>
    <g>
      <path d="M678,178 C678,156 678.016,145 678.031,134 C678.047,123 678.063,112 678.063,90" fill="#000000"/>
      <path d="M678,178 C678,156 678.016,145 678.031,134 C678.047,123 678.063,112 678.063,90" fill-opacity="0" stroke="#000000" stroke-width="3" stroke-linejoin="round"/>
    </g>
    <g>
      <path d="M427,250 C453.5,250 466.748,250.016 480,250.031 C493.252,250.047 506.508,250.063 533.016,250.063" fill="#000000"/>
      <path d="M427,250 C453.5,250 466.748,250.016 480,250.031 C493.252,250.047 506.508,250.063 533.016,250.063" fill-opacity="0" stroke="#000000" stroke-width="3" stroke-linejoin="round"/>
    </g>
    <path d="M495,308 C504.5,308 509.248,293.504 514,279.008 C518.752,264.512 523.508,250.016 533.016,250.016" fill-opacity="0" stroke="#000000" stroke-width="3" stroke-linejoin="round"/>
    <path d="M561,250 C571.508,250 576.764,235.504 582.016,221.008 C587.268,206.512 592.516,192.016 603.016,192.016" fill-opacity="0" stroke="#000000" stroke-width="3" stroke-linejoin="round"/>
    <g>
      <path d="M631,192 C639.25,192 643.374,192.016 647.5,192.031 C651.626,192.047 655.754,192.063 664.008,192.063" fill="#000000"/>
      <path d="M631,192 C639.25,192 643.374,192.016 647.5,192.031 C651.626,192.047 655.754,192.063 664.008,192.063" fill-opacity="0" stroke="#000000" stroke-width="3" stroke-linejoin="round"/>
    </g>
    <path d="M692,192 C701,192 705.5,206.504 710,221.008 C714.5,235.512 719,250.016 728,250.016" fill-opacity="0" stroke="#000000" stroke-width="3" stroke-linejoin="round"/>
    <g>
      <path d="M561,250 C602.75,250 623.625,250.016 644.499,250.031 C665.373,250.047 686.246,250.063 727.992,250.063" fill="#000000"/>
      <path d="M561,250 C602.75,250 623.625,250.016 644.499,250.031 C665.373,250.047 686.246,250.063 727.992,250.063" fill-opacity="0" stroke="#000000" stroke-width="3" stroke-linejoin="round"/>
    </g>
    <g>
      <path d="M427,308 C437,308 442,308.016 447,308.031 C452,308.047 457,308.063 467,308.063" fill="#000000"/>
      <path d="M427,308 C437,308 442,308.016 447,308.031 C452,308.047 457,308.063 467,308.063" fill-opacity="0" stroke="#000000" stroke-width="3" stroke-linejoin="round"/>
    </g>
    <path d="M134,14 L144.499,14 L144.499,14 L160.247,14 L196.992,14 L196.992,35 L196.992,35 L196.992,44 L196.992,50 L160.247,50 L152.373,54.5 L144.499,50 L134,50 L134,44 L134,35 L134,35 z" fill="#CFE2F3"/>
    <path d="M148.047,37.08 L147,37.08 L144.469,31.361 L143.844,31.361 Q143.625,31.361 143.531,31.283 Q143.438,31.189 143.438,31.049 Q143.438,30.908 143.531,30.83 Q143.625,30.736 143.844,30.736 L146.156,30.736 Q146.375,30.736 146.469,30.83 Q146.563,30.908 146.563,31.049 Q146.563,31.189 146.469,31.283 Q146.375,31.361 146.156,31.361 L145.125,31.361 L147.391,36.471 L147.656,36.471 L149.875,31.361 L148.844,31.361 Q148.625,31.361 148.531,31.283 Q148.438,31.189 148.438,31.049 Q148.438,30.908 148.531,30.83 Q148.625,30.736 148.844,30.736 L151.156,30.736 Q151.391,30.736 151.469,30.83 Q151.563,30.908 151.563,31.049 Q151.563,31.189 151.469,31.283 Q151.391,31.361 151.156,31.361 L150.531,31.361 L148.047,37.08 z M159.33,31.721 L159.33,33.252 Q159.33,35.236 158.376,36.393 Q157.642,37.299 156.517,37.299 Q155.97,37.299 155.486,37.08 Q155.017,36.861 154.673,36.486 Q154.47,36.236 154.205,35.705 Q153.955,35.174 153.845,34.721 Q153.673,34.096 153.673,33.252 L153.673,31.721 Q153.673,29.736 154.626,28.58 Q155.361,27.674 156.486,27.674 Q157.048,27.674 157.517,27.893 Q157.986,28.096 158.33,28.486 Q158.548,28.736 158.798,29.283 Q159.048,29.814 159.158,30.252 Q159.33,30.877 159.33,31.721 z M158.705,31.799 Q158.705,30.939 158.455,30.189 Q158.22,29.439 157.908,28.986 Q157.736,28.736 157.439,28.549 Q157.017,28.283 156.501,28.283 Q155.47,28.283 154.876,29.346 Q154.298,30.393 154.298,31.799 L154.298,33.158 Q154.298,34.033 154.533,34.799 Q154.783,35.549 155.095,35.986 Q155.283,36.236 155.564,36.424 Q155.986,36.689 156.517,36.689 Q157.533,36.689 158.111,35.627 Q158.705,34.564 158.705,33.158 L158.705,31.799 z M165.378,35.314 L165.644,35.314 Q166.05,35.314 166.331,35.611 Q166.628,35.893 166.628,36.299 Q166.628,36.721 166.331,37.018 Q166.05,37.299 165.644,37.299 L165.378,37.299 Q164.972,37.299 164.675,37.018 Q164.378,36.721 164.378,36.314 Q164.378,35.893 164.675,35.611 Q164.972,35.314 165.378,35.314 z M174.817,27.768 L174.817,36.471 L176.926,36.471 Q177.145,36.471 177.239,36.549 Q177.333,36.627 177.333,36.768 Q177.333,36.908 177.239,37.002 Q177.145,37.08 176.926,37.08 L172.083,37.08 Q171.864,37.08 171.77,37.002 Q171.676,36.908 171.676,36.768 Q171.676,36.627 171.77,36.549 Q171.864,36.471 172.083,36.471 L174.192,36.471 L174.192,28.611 L172.192,29.236 Q172.036,29.283 171.973,29.283 Q171.864,29.283 171.77,29.205 Q171.676,29.111 171.676,28.986 Q171.676,28.877 171.754,28.768 Q171.817,28.721 172.004,28.643 L174.817,27.768 z" fill="#000000"/>
    <path d="M399,14 L409.499,14 L409.499,14 L425.247,14 L461.992,14 L461.992,35 L461.992,35 L461.992,44 L461.992,50 L425.247,50 L417.373,54.5 L409.499,50 L399,50 L399,44 L399,35 L399,35 z" fill="#CFE2F3"/>
    <path d="M413.047,37.08 L412,37.08 L409.469,31.361 L408.844,31.361 Q408.625,31.361 408.531,31.283 Q408.438,31.189 408.438,31.049 Q408.438,30.908 408.531,30.83 Q408.625,30.736 408.844,30.736 L411.156,30.736 Q411.375,30.736 411.469,30.83 Q411.562,30.908 411.562,31.049 Q411.562,31.189 411.469,31.283 Q411.375,31.361 411.156,31.361 L410.125,31.361 L412.391,36.471 L412.656,36.471 L414.875,31.361 L413.844,31.361 Q413.625,31.361 413.531,31.283 Q413.438,31.189 413.438,31.049 Q413.438,30.908 413.531,30.83 Q413.625,30.736 413.844,30.736 L416.156,30.736 Q416.391,30.736 416.469,30.83 Q416.562,30.908 416.562,31.049 Q416.562,31.189 416.469,31.283 Q416.391,31.361 416.156,31.361 L415.531,31.361 L413.047,37.08 z M424.33,31.721 L424.33,33.252 Q424.33,35.236 423.376,36.392 Q422.642,37.299 421.517,37.299 Q420.97,37.299 420.486,37.08 Q420.017,36.861 419.673,36.486 Q419.47,36.236 419.205,35.705 Q418.955,35.174 418.845,34.721 Q418.673,34.096 418.673,33.252 L418.673,31.721 Q418.673,29.736 419.626,28.58 Q420.361,27.674 421.486,27.674 Q422.048,27.674 422.517,27.892 Q422.986,28.096 423.33,28.486 Q423.548,28.736 423.798,29.283 Q424.048,29.814 424.158,30.252 Q424.33,30.877 424.33,31.721 z M423.705,31.799 Q423.705,30.939 423.455,30.189 Q423.22,29.439 422.908,28.986 Q422.736,28.736 422.439,28.549 Q422.017,28.283 421.501,28.283 Q420.47,28.283 419.876,29.346 Q419.298,30.392 419.298,31.799 L419.298,33.158 Q419.298,34.033 419.533,34.799 Q419.783,35.549 420.095,35.986 Q420.283,36.236 420.564,36.424 Q420.986,36.689 421.517,36.689 Q422.533,36.689 423.111,35.627 Q423.705,34.564 423.705,33.158 L423.705,31.799 z M430.378,35.314 L430.644,35.314 Q431.05,35.314 431.331,35.611 Q431.628,35.892 431.628,36.299 Q431.628,36.721 431.331,37.017 Q431.05,37.299 430.644,37.299 L430.378,37.299 Q429.972,37.299 429.675,37.017 Q429.378,36.721 429.378,36.314 Q429.378,35.892 429.675,35.611 Q429.972,35.314 430.378,35.314 z M436.864,36.471 L441.583,36.471 L441.583,36.221 Q441.583,36.002 441.661,35.908 Q441.754,35.814 441.895,35.814 Q442.036,35.814 442.114,35.908 Q442.208,36.002 442.208,36.221 L442.208,37.08 L436.254,37.08 L436.254,36.174 Q438.129,34.486 439.911,32.736 Q440.739,31.924 441.036,31.549 Q441.348,31.174 441.458,30.892 Q441.567,30.596 441.567,30.299 Q441.567,29.502 440.926,28.892 Q440.301,28.283 439.395,28.283 Q438.598,28.283 437.973,28.752 Q437.348,29.221 437.161,29.892 Q437.114,30.064 437.051,30.127 Q436.973,30.189 436.848,30.189 Q436.723,30.189 436.629,30.111 Q436.551,30.033 436.551,29.908 Q436.551,29.564 436.942,28.971 Q437.333,28.361 438.004,28.017 Q438.676,27.674 439.395,27.674 Q440.536,27.674 441.364,28.471 Q442.192,29.267 442.192,30.283 Q442.192,30.705 442.051,31.064 Q441.926,31.408 441.583,31.83 Q441.254,32.252 440.395,33.096 Q438.223,35.236 436.864,36.424 L436.864,36.471 z" fill="#000000"/>
    <path d="M664,14 L674.499,14 L674.499,14 L690.247,14 L726.992,14 L726.992,35 L726.992,35 L726.992,44 L726.992,50 L690.247,50 L682.373,54.5 L674.499,50 L664,50 L664,44 L664,35 L664,35 z" fill="#CFE2F3"/>
    <path d="M678.047,37.08 L677,37.08 L674.469,31.361 L673.844,31.361 Q673.625,31.361 673.531,31.283 Q673.438,31.189 673.438,31.049 Q673.438,30.908 673.531,30.83 Q673.625,30.736 673.844,30.736 L676.156,30.736 Q676.375,30.736 676.469,30.83 Q676.563,30.908 676.563,31.049 Q676.563,31.189 676.469,31.283 Q676.375,31.361 676.156,31.361 L675.125,31.361 L677.391,36.471 L677.656,36.471 L679.875,31.361 L678.844,31.361 Q678.625,31.361 678.531,31.283 Q678.438,31.189 678.438,31.049 Q678.438,30.908 678.531,30.83 Q678.625,30.736 678.844,30.736 L681.156,30.736 Q681.391,30.736 681.469,30.83 Q681.563,30.908 681.563,31.049 Q681.563,31.189 681.469,31.283 Q681.391,31.361 681.156,31.361 L680.531,31.361 L678.047,37.08 z M686.814,27.767 L686.814,36.471 L688.923,36.471 Q689.142,36.471 689.236,36.549 Q689.33,36.627 689.33,36.767 Q689.33,36.908 689.236,37.002 Q689.142,37.08 688.923,37.08 L684.08,37.08 Q683.861,37.08 683.767,37.002 Q683.673,36.908 683.673,36.767 Q683.673,36.627 683.767,36.549 Q683.861,36.471 684.08,36.471 L686.189,36.471 L686.189,28.611 L684.189,29.236 Q684.033,29.283 683.97,29.283 Q683.861,29.283 683.767,29.205 Q683.673,29.111 683.673,28.986 Q683.673,28.877 683.752,28.767 Q683.814,28.721 684.002,28.642 L686.814,27.767 z M695.378,35.314 L695.644,35.314 Q696.05,35.314 696.331,35.611 Q696.628,35.892 696.628,36.299 Q696.628,36.721 696.331,37.017 Q696.05,37.299 695.644,37.299 L695.378,37.299 Q694.972,37.299 694.675,37.017 Q694.378,36.721 694.378,36.314 Q694.378,35.892 694.675,35.611 Q694.972,35.314 695.378,35.314 z M707.333,31.721 L707.333,33.252 Q707.333,35.236 706.379,36.392 Q705.645,37.299 704.52,37.299 Q703.973,37.299 703.489,37.08 Q703.02,36.861 702.676,36.486 Q702.473,36.236 702.208,35.705 Q701.958,35.174 701.848,34.721 Q701.676,34.096 701.676,33.252 L701.676,31.721 Q701.676,29.736 702.629,28.58 Q703.364,27.674 704.489,27.674 Q705.051,27.674 705.52,27.892 Q705.989,28.096 706.333,28.486 Q706.551,28.736 706.801,29.283 Q707.051,29.814 707.161,30.252 Q707.333,30.877 707.333,31.721 z M706.708,31.799 Q706.708,30.939 706.458,30.189 Q706.223,29.439 705.911,28.986 Q705.739,28.736 705.442,28.549 Q705.02,28.283 704.504,28.283 Q703.473,28.283 702.879,29.346 Q702.301,30.392 702.301,31.799 L702.301,33.158 Q702.301,34.033 702.536,34.799 Q702.786,35.549 703.098,35.986 Q703.286,36.236 703.567,36.424 Q703.989,36.689 704.52,36.689 Q705.536,36.689 706.114,35.627 Q706.708,34.564 706.708,33.158 L706.708,31.799 z" fill="#000000"/>
    <g>
      <path d="M274,250 C305.25,250 320.874,250.016 336.5,250.031 C352.126,250.047 367.754,250.063 399.008,250.063" fill="#000000"/>
      <path d="M274,250 C305.25,250 320.874,250.016 336.5,250.031 C352.126,250.047 367.754,250.063 399.008,250.063" fill-opacity="0" stroke="#000000" stroke-width="3" stroke-linejoin="round"/>
    </g>
  </g>
</svg>
